<svg id="svg" version="1.1" xmlns="http://www.w3.org/2000/svg" xmlns:xlink="http://www.w3.org/1999/xlink" width="400" height="525.31328320802" viewBox="0, 0, 400,525.31328320802"><g id="svgg"><path id="path0" d="M95.071 0.371 C 68.423 2.853,45.434 22.416,38.764 48.287 C 36.782 55.974,36.759 56.470,36.759 91.497 L 36.759 123.490 33.280 128.736 C -11.257 195.916,-11.021 284.061,33.874 350.618 L 36.742 354.870 36.844 412.105 L 36.947 469.340 37.859 473.440 C 43.873 500.470,63.604 519.431,91.060 524.563 C 93.783 525.072,99.084 525.135,146.951 525.229 L 199.833 525.333 199.833 518.148 L 199.833 510.964 147.452 510.857 L 95.071 510.750 91.729 509.991 C 71.258 505.343,56.797 491.028,52.012 470.677 L 51.305 467.669 51.205 264.495 C 51.134 119.204,51.209 60.511,51.470 58.480 C 53.929 39.314,67.277 23.184,85.730 17.080 C 93.871 14.388,89.722 14.563,147.953 14.450 L 199.833 14.349 199.833 7.175 L 199.833 0.000 148.956 0.045 C 120.973 0.070,96.725 0.216,95.071 0.371 M183.529 27.445 C 180.567 28.299,180.412 32.737,183.303 33.944 C 184.980 34.645,215.020 34.645,216.697 33.944 C 219.691 32.693,219.429 28.291,216.308 27.424 C 214.696 26.977,185.089 26.995,183.529 27.445 M96.909 28.439 C 82.138 30.156,69.759 41.087,65.726 55.973 L 65.002 58.647 64.912 191.896 C 64.863 265.184,64.895 325.146,64.982 325.146 C 65.070 325.146,78.155 317.714,94.061 308.629 L 122.981 292.112 127.273 299.356 C 129.633 303.340,132.877 308.818,134.481 311.529 C 136.085 314.240,137.499 316.458,137.624 316.458 C 137.821 316.458,148.070 275.945,148.046 275.260 C 148.041 275.115,147.736 275.158,147.368 275.355 C 147.001 275.552,146.700 275.660,146.700 275.596 C 146.700 275.003,147.813 267.215,148.216 264.996 C 149.316 258.922,151.869 250.825,154.469 245.160 L 155.521 242.867 154.939 233.258 C 154.619 227.973,154.191 223.065,153.987 222.351 C 153.404 220.305,153.584 216.332,154.395 213.367 C 155.592 208.987,155.667 204.297,154.593 200.898 C 154.111 199.374,153.718 197.850,153.718 197.512 C 153.718 197.173,153.288 196.436,152.763 195.874 C 150.019 192.937,150.672 189.497,154.859 184.826 C 158.179 181.125,158.352 179.498,155.486 178.947 L 153.746 178.613 155.213 175.934 L 156.680 173.254 155.539 170.921 C 151.722 163.117,153.850 157.149,162.865 150.375 L 167.089 147.201 166.836 143.358 C 166.469 137.781,166.598 132.324,167.262 125.378 L 167.847 119.260 166.821 118.193 C 163.515 114.757,163.326 112.399,165.236 98.430 L 166.513 89.091 165.716 88.572 C 158.328 83.766,158.774 74.616,166.599 70.465 C 167.946 69.750,168.087 69.559,168.087 68.451 C 168.087 61.749,174.074 55.925,182.289 54.636 C 188.353 53.684,189.548 53.008,191.276 49.552 C 191.755 48.593,192.147 47.734,192.147 47.642 C 192.147 47.551,184.741 47.433,175.689 47.380 L 159.231 47.285 156.631 46.043 C 152.121 43.890,149.448 40.533,147.761 34.901 C 146.930 32.128,145.594 30.147,143.808 29.036 L 142.523 28.237 120.969 28.192 C 109.114 28.168,98.287 28.279,96.909 28.439 M140.219 50.543 C 141.253 52.611,142.120 54.329,142.147 54.362 C 142.174 54.395,144.075 54.682,146.370 55.000 C 148.665 55.317,150.617 55.641,150.708 55.718 C 150.799 55.795,149.463 57.165,147.739 58.762 L 144.605 61.666 145.319 65.887 C 145.711 68.209,146.032 70.209,146.032 70.331 C 146.032 70.454,144.306 69.634,142.197 68.509 L 138.363 66.464 134.606 68.403 C 132.540 69.470,130.753 70.385,130.636 70.438 C 130.519 70.490,130.767 68.610,131.188 66.261 L 131.954 61.988 128.968 58.975 C 125.848 55.826,125.605 55.471,126.566 55.474 C 126.888 55.475,128.780 55.227,130.770 54.922 L 134.390 54.369 136.278 50.576 C 137.316 48.490,138.205 46.784,138.253 46.784 C 138.301 46.784,139.186 48.475,140.219 50.543 M194.386 53.718 C 194.086 63.370,193.125 66.530,189.277 70.516 L 187.062 72.810 188.451 74.457 C 193.601 80.564,190.982 88.992,183.336 90.917 C 181.270 91.438,181.274 91.418,182.625 94.574 C 184.635 99.270,185.019 102.140,184.302 107.093 C 183.721 111.100,183.722 111.491,184.314 118.340 L 184.927 125.435 189.623 129.977 C 192.206 132.475,195.560 135.707,197.076 137.159 L 199.833 139.798 199.833 93.625 L 199.833 47.452 197.206 47.452 L 194.580 47.452 194.386 53.718 M191.291 53.175 C 190.233 54.300,187.616 55.676,185.915 56.001 C 184.960 56.183,184.840 56.347,184.630 57.751 C 184.502 58.602,184.111 59.861,183.761 60.547 C 182.782 62.465,182.989 62.645,184.628 61.302 C 185.669 60.449,186.132 60.228,186.132 60.584 C 186.132 60.866,186.296 61.152,186.497 61.219 C 186.697 61.286,185.926 62.075,184.783 62.973 C 182.687 64.620,180.785 67.123,180.785 68.236 C 180.785 68.984,180.830 68.983,182.186 68.205 C 184.618 66.810,185.092 66.932,183.590 68.565 C 182.835 69.386,182.148 70.265,182.064 70.518 C 181.939 70.892,181.665 70.860,180.596 70.347 C 179.806 69.967,178.188 69.640,176.541 69.527 C 173.423 69.313,172.790 68.948,173.360 67.696 C 173.971 66.356,176.105 64.187,178.235 62.740 C 181.069 60.816,182.738 59.224,183.511 57.708 L 184.183 56.390 182.234 56.630 C 175.044 57.514,170.092 62.626,170.092 69.165 L 170.092 71.055 168.329 71.786 C 162.003 74.408,160.324 81.627,165.113 85.610 C 165.846 86.219,166.910 87.139,167.478 87.655 C 168.689 88.755,168.737 87.578,166.939 100.883 C 165.333 112.775,165.398 113.577,168.245 116.912 C 169.988 118.954,169.952 118.642,169.217 125.480 C 168.638 130.875,168.526 141.567,169.007 145.612 L 169.295 148.033 168.079 148.838 C 165.215 150.733,159.689 155.166,158.590 156.450 C 155.301 160.293,155.024 167.574,158.014 171.618 L 158.986 172.932 157.964 174.821 L 156.941 176.709 158.170 177.868 C 160.428 179.997,159.842 182.296,156.003 186.377 C 152.674 189.917,152.154 193.970,154.870 195.207 C 155.558 195.521,155.723 195.832,155.723 196.820 C 155.723 197.493,156.110 199.311,156.584 200.860 C 157.645 204.328,157.562 209.453,156.383 213.367 C 155.614 215.918,155.392 220.757,155.976 222.222 C 156.159 222.682,156.580 227.494,156.912 232.916 L 157.515 242.774 155.644 247.285 C 152.626 254.565,150.373 262.559,149.533 268.972 L 149.297 270.777 150.376 270.008 C 151.360 269.308,151.439 269.296,151.268 269.875 C 150.741 271.664,147.697 286.531,147.796 286.830 C 147.860 287.020,151.571 282.334,156.045 276.415 C 160.518 270.496,164.233 265.709,164.301 265.777 C 164.369 265.845,163.899 269.118,163.257 273.050 C 162.614 276.983,162.007 280.727,161.907 281.370 L 161.724 282.540 162.565 281.537 C 163.612 280.288,163.614 280.214,162.420 286.589 C 161.876 289.492,161.485 291.923,161.553 291.990 C 161.620 292.057,163.144 290.033,164.940 287.493 C 168.817 282.011,168.985 281.810,168.251 283.542 C 160.977 300.707,156.704 316.539,158.438 319.905 C 159.675 322.308,160.918 322.689,161.243 320.765 L 161.475 319.391 162.847 319.611 C 164.554 319.884,164.417 319.580,164.065 322.311 C 163.477 326.879,163.765 326.716,165.548 321.470 C 169.585 309.592,174.341 300.425,181.539 290.643 C 184.282 286.916,185.121 286.020,183.575 288.468 C 179.428 295.038,173.154 312.494,173.823 315.604 C 173.885 315.889,176.394 311.461,179.401 305.763 C 182.407 300.066,184.909 295.405,184.961 295.405 C 185.014 295.405,184.603 297.172,184.049 299.332 C 182.271 306.263,182.990 310.824,186.127 312.496 C 188.370 313.691,191.675 313.063,193.198 311.152 L 193.896 310.276 193.656 314.871 C 193.523 317.398,193.506 319.465,193.618 319.465 C 193.729 319.465,195.176 317.380,196.832 314.830 L 199.845 310.195 199.852 291.856 L 199.860 273.517 198.997 272.856 C 198.475 272.457,197.615 272.196,196.824 272.196 C 195.605 272.196,195.528 272.140,195.717 271.386 C 195.851 270.852,195.798 270.653,195.560 270.799 C 195.362 270.922,196.285 268.877,197.610 266.254 L 200.019 261.487 199.842 259.176 L 199.666 256.866 197.061 259.638 C 190.968 266.122,184.740 274.786,179.927 283.473 C 178.378 286.268,177.111 288.426,177.110 288.269 C 177.110 288.112,177.722 285.738,178.470 282.994 C 179.218 280.249,179.777 277.845,179.712 277.650 C 179.647 277.455,176.755 283.250,173.284 290.528 C 169.813 297.805,166.928 303.714,166.872 303.658 C 166.644 303.431,168.581 294.904,169.927 290.207 C 172.711 280.493,177.122 270.019,181.857 261.879 C 184.099 258.025,183.064 259.006,178.077 265.462 C 175.446 268.866,173.260 271.617,173.217 271.574 C 173.174 271.531,173.502 269.779,173.947 267.681 C 174.391 265.583,174.697 263.808,174.626 263.737 C 173.866 262.978,181.329 250.531,186.051 244.682 C 187.429 242.975,188.488 241.509,188.403 241.425 C 187.815 240.837,179.162 249.133,175.393 253.897 C 172.838 257.127,172.871 257.098,173.749 255.357 C 176.973 248.966,183.076 241.413,188.710 236.842 C 191.775 234.356,191.436 234.377,184.721 237.096 C 181.371 238.452,178.576 239.507,178.510 239.440 C 178.443 239.373,179.993 237.189,181.955 234.586 C 186.076 229.119,186.119 228.779,182.370 231.333 C 173.200 237.580,165.683 247.149,161.411 258.015 C 160.248 260.974,160.233 260.776,161.069 253.300 C 162.034 244.673,161.934 244.645,159.223 252.799 C 156.683 260.435,156.395 260.865,157.217 255.796 C 160.014 238.552,171.375 223.867,195.066 206.870 C 199.433 203.737,200.956 202.172,199.635 202.172 C 199.230 202.172,192.383 205.774,190.115 207.182 L 187.527 208.787 188.958 206.565 C 192.873 200.491,193.042 198.691,189.308 202.832 C 186.162 206.322,186.171 206.321,187.469 203.175 C 188.577 200.487,188.551 199.884,187.390 201.363 C 186.974 201.893,186.290 202.705,185.870 203.168 L 185.106 204.010 185.581 202.840 C 185.842 202.197,186.913 199.827,187.959 197.574 C 189.005 195.321,189.812 193.334,189.751 193.158 C 189.690 192.982,186.876 196.442,183.496 200.847 C 180.116 205.252,177.290 208.855,177.216 208.855 C 176.954 208.855,182.012 200.186,184.682 196.058 C 187.540 191.642,187.374 191.598,183.375 195.713 C 179.536 199.663,175.324 202.968,171.094 205.348 C 165.388 208.560,162.570 210.731,159.605 214.202 C 158.849 215.087,158.397 215.431,158.507 215.038 C 158.609 214.670,158.943 212.941,159.249 211.195 C 159.884 207.565,160.733 205.853,163.185 203.258 C 164.922 201.419,164.774 201.107,162.599 202.016 C 161.041 202.667,160.870 202.541,160.606 200.546 L 160.388 198.904 158.874 198.677 L 157.359 198.450 157.562 196.886 C 157.673 196.026,157.830 194.998,157.911 194.601 C 158.026 194.041,157.926 193.916,157.463 194.037 C 155.715 194.494,154.489 191.866,155.523 189.875 C 156.149 188.669,160.289 184.707,161.665 183.996 C 162.268 183.685,162.669 183.280,162.555 183.096 C 162.442 182.912,162.491 182.580,162.665 182.358 C 162.839 182.136,163.070 181.377,163.179 180.671 C 163.288 179.964,163.760 178.884,164.228 178.270 L 165.080 177.154 164.231 177.048 C 163.510 176.958,164.267 176.269,169.243 172.484 C 175.645 167.615,176.616 166.541,172.348 169.053 C 170.831 169.945,167.861 171.674,165.748 172.896 L 161.905 175.117 161.809 172.330 L 161.713 169.543 160.767 169.682 C 158.486 170.017,158.740 163.488,161.165 159.448 C 162.826 156.682,168.922 151.434,169.640 152.152 C 170.436 152.948,170.128 157.392,169.219 158.236 L 168.254 159.132 168.036 157.393 C 167.657 154.374,166.407 154.267,165.371 157.164 C 165.068 158.011,164.277 159.217,163.613 159.843 C 161.704 161.643,162.202 164.077,164.479 164.077 C 164.947 164.077,165.779 164.167,166.329 164.277 L 167.327 164.476 166.621 165.775 C 165.968 166.976,165.953 167.143,166.427 167.998 C 167.630 170.168,168.291 169.794,178.279 161.283 L 186.299 154.450 187.217 156.339 C 188.378 158.729,188.408 160.361,187.316 161.660 C 186.672 162.425,186.582 162.725,186.898 163.049 C 187.216 163.375,186.820 163.902,185.040 165.524 C 182.761 167.602,182.299 168.246,183.375 167.851 C 184.215 167.542,179.246 171.735,174.937 174.970 C 172.916 176.488,169.306 179.588,166.916 181.859 C 164.526 184.129,161.768 186.621,160.787 187.396 C 157.917 189.665,159.521 189.011,165.079 185.647 C 171.006 182.059,170.651 182.167,169.579 184.285 C 168.497 186.421,167.899 187.048,166.042 187.990 C 163.322 189.369,162.150 191.423,163.086 193.172 C 163.551 194.039,165.395 194.024,166.515 193.144 C 167.559 192.322,167.889 192.701,167.232 193.968 L 166.746 194.905 167.792 194.695 C 168.368 194.580,169.031 194.486,169.266 194.486 C 169.502 194.486,170.093 193.806,170.580 192.975 C 171.355 191.652,173.896 189.477,174.240 189.842 C 174.309 189.915,173.106 192.155,171.568 194.820 C 168.045 200.923,168.073 201.079,171.963 196.992 C 175.006 193.796,175.091 193.735,173.904 195.577 C 173.222 196.637,172.738 197.578,172.828 197.668 C 172.918 197.758,177.305 193.824,182.577 188.926 C 187.848 184.028,192.091 179.949,192.004 179.863 C 191.917 179.776,189.549 181.110,186.742 182.826 C 183.808 184.620,180.517 186.344,179.002 186.879 L 176.367 187.812 178.041 185.886 C 178.962 184.827,180.120 183.584,180.615 183.124 C 182.268 181.590,182.392 180.988,181.010 181.212 C 179.823 181.405,179.824 181.403,182.068 179.472 C 183.303 178.409,185.062 176.547,185.975 175.334 C 187.854 172.840,188.137 172.680,188.137 174.114 C 188.137 175.013,188.210 175.089,188.783 174.782 C 191.645 173.250,193.283 175.890,195.010 184.817 C 195.523 187.470,195.964 189.676,195.989 189.718 C 196.014 189.761,196.502 189.620,197.075 189.404 C 197.870 189.103,198.317 189.103,198.974 189.402 L 199.833 189.794 199.833 171.035 C 199.833 152.849,199.814 152.294,199.219 152.833 C 198.679 153.322,198.223 153.349,195.459 153.058 C 193.729 152.876,192.081 152.724,191.796 152.721 C 191.511 152.718,191.089 152.190,190.855 151.542 C 190.423 150.348,189.078 149.373,187.862 149.373 C 186.411 149.373,184.553 144.420,184.164 139.515 C 183.975 137.126,183.340 129.762,182.754 123.150 L 181.688 111.129 182.275 107.387 C 183.114 102.038,182.782 99.782,180.279 93.821 C 178.937 90.627,179.382 89.910,183.325 88.905 C 189.783 87.259,191.139 79.973,185.991 74.576 L 184.151 72.646 186.667 70.367 C 190.870 66.560,191.955 63.873,192.362 56.266 C 192.609 51.644,192.641 51.737,191.291 53.175 M101.492 68.307 C 104.222 73.777,104.666 74.480,105.498 74.644 C 106.012 74.746,109.140 75.226,112.448 75.711 C 115.756 76.196,118.507 76.634,118.561 76.684 C 118.614 76.735,116.375 78.964,113.585 81.637 L 108.511 86.499 109.695 93.458 C 110.346 97.286,110.841 100.457,110.796 100.506 C 110.750 100.554,107.994 99.163,104.672 97.414 C 97.417 93.597,99.049 93.596,91.819 97.424 C 88.507 99.178,85.756 100.569,85.705 100.515 C 85.654 100.461,86.152 97.285,86.813 93.457 L 88.013 86.497 82.854 81.528 C 80.016 78.795,77.892 76.551,78.133 76.542 C 78.588 76.524,88.895 75.007,90.820 74.675 C 91.865 74.495,92.059 74.198,94.993 68.321 C 96.685 64.930,98.149 62.155,98.246 62.155 C 98.342 62.155,99.803 64.924,101.492 68.307 M180.211 73.184 C 183.406 74.380,186.773 77.716,186.787 79.699 C 186.788 79.883,186.451 79.437,186.038 78.707 C 181.105 69.997,163.661 72.019,164.870 81.161 C 165.115 83.007,164.559 82.401,164.232 80.466 C 163.234 74.555,172.542 70.314,180.211 73.184 M177.621 81.019 C 179.250 81.699,179.229 81.704,174.787 81.704 C 170.917 81.704,170.034 81.455,172.421 81.037 C 173.059 80.925,173.648 80.766,173.730 80.684 C 174.062 80.352,176.535 80.565,177.621 81.019 M177.161 84.128 C 177.493 84.461,177.403 84.545,176.712 84.545 C 176.236 84.545,175.492 84.840,175.058 85.202 C 174.282 85.849,174.280 85.859,174.980 85.870 C 176.077 85.887,176.754 86.865,175.835 87.105 C 175.177 87.277,175.159 87.350,175.613 87.998 C 176.330 89.022,176.223 90.075,175.229 91.772 C 173.806 94.199,174.900 96.579,176.677 94.924 L 177.395 94.254 178.116 96.421 C 179.499 100.574,179.758 103.237,179.779 113.450 C 179.789 118.780,180.017 129.307,180.285 136.842 C 180.553 144.378,180.775 151.461,180.779 152.583 L 180.785 154.622 177.360 157.475 C 173.326 160.835,173.180 160.749,175.318 156.279 L 176.942 152.882 176.942 149.206 C 176.942 145.121,176.884 144.946,174.148 140.900 C 172.013 137.743,171.991 135.929,174.032 131.247 C 178.059 122.007,177.725 115.409,172.712 105.197 C 168.832 97.291,168.208 94.470,170.620 95.728 C 171.922 96.407,172.560 96.389,172.288 95.682 C 172.036 95.024,170.426 85.192,170.426 84.312 C 170.427 83.559,176.428 83.395,177.161 84.128 M188.805 132.185 C 188.805 132.330,191.249 136.367,194.236 141.155 L 199.666 149.861 199.761 146.216 L 199.857 142.570 198.258 140.932 C 195.477 138.084,188.805 131.910,188.805 132.185 M194.420 158.755 C 196.580 159.688,195.945 160.735,193.219 160.735 L 191.307 160.735 191.427 159.220 C 191.562 157.523,191.568 157.522,194.420 158.755 M193.354 166.623 C 194.934 167.373,196.692 169.518,197.350 171.499 C 197.944 173.288,197.881 174.019,196.897 176.706 L 196.250 178.476 195.864 176.513 C 195.433 174.325,194.596 173.313,192.243 172.133 C 189.582 170.800,188.945 169.370,189.852 166.767 C 190.275 165.552,191.032 165.521,193.354 166.623 M184.941 209.366 C 184.450 210.651,183.766 211.388,180.979 213.633 C 179.127 215.126,175.618 218.346,173.183 220.789 C 170.748 223.232,168.755 225.100,168.755 224.940 C 168.755 220.677,171.942 213.305,172.619 216.003 C 172.934 217.258,172.867 217.306,177.491 212.454 L 181.715 208.020 181.541 209.607 C 181.333 211.501,181.495 211.579,182.410 210.028 C 183.039 208.962,185.080 207.358,185.400 207.678 C 185.474 207.752,185.267 208.511,184.941 209.366 M197.621 209.623 C 195.645 211.456,192.876 215.043,193.193 215.360 C 193.279 215.445,194.845 214.505,196.674 213.271 L 200.000 211.028 199.833 209.377 L 199.666 207.727 197.621 209.623 M164.214 214.286 C 164.085 214.515,163.639 215.164,163.223 215.726 C 162.359 216.897,160.902 220.926,160.238 223.982 L 159.786 226.065 159.759 223.636 C 159.733 221.221,159.728 221.208,158.903 221.415 L 158.073 221.624 158.517 220.147 C 159.179 217.950,159.434 217.616,161.942 215.682 C 164.470 213.733,164.557 213.679,164.214 214.286 M29.980 229.038 C 30.492 229.142,31.963 229.381,33.250 229.567 C 34.536 229.754,36.115 229.998,36.759 230.109 L 37.928 230.312 34.764 233.251 L 31.599 236.190 32.300 240.484 C 32.685 242.846,32.956 244.829,32.901 244.891 C 32.846 244.953,31.099 244.096,29.019 242.985 L 25.236 240.966 21.446 242.984 C 19.361 244.094,17.612 244.952,17.557 244.890 C 17.503 244.829,17.773 242.851,18.158 240.496 L 18.857 236.213 15.694 233.273 L 12.531 230.333 13.534 230.132 C 14.085 230.021,15.815 229.755,17.377 229.540 C 21.476 228.975,21.341 229.079,23.384 224.923 L 25.215 221.201 27.132 225.024 C 28.770 228.292,29.184 228.875,29.980 229.038 M198.190 225.756 C 196.408 228.351,196.494 228.629,198.506 226.784 C 199.761 225.634,199.989 225.244,199.843 224.502 C 199.674 223.651,199.596 223.710,198.190 225.756 M197.567 234.473 C 195.064 238.699,195.108 239.033,197.794 236.207 C 199.670 234.232,199.810 233.975,199.821 232.498 C 199.836 230.493,200.019 230.332,197.567 234.473 M192.904 247.096 C 187.451 256.242,185.307 260.149,186.582 258.619 C 186.646 258.542,189.691 254.495,193.349 249.624 L 200.000 240.769 199.833 238.263 L 199.666 235.757 192.904 247.096 M93.222 268.755 C 94.188 270.823,95.000 272.538,95.025 272.567 C 95.050 272.597,96.800 272.867,98.914 273.168 C 101.028 273.469,102.973 273.789,103.238 273.880 C 103.565 273.993,102.738 275.031,100.653 277.125 L 97.587 280.204 98.248 284.045 C 98.612 286.158,98.911 288.080,98.912 288.318 C 98.913 288.576,97.371 287.927,95.076 286.705 L 91.238 284.662 87.390 286.714 C 85.030 287.973,83.543 288.597,83.544 288.327 C 83.546 288.084,83.844 286.158,84.208 284.045 L 84.869 280.204 81.803 277.125 C 79.720 275.033,78.892 273.993,79.218 273.881 C 79.676 273.725,86.599 272.682,87.182 272.682 C 87.334 272.682,88.270 270.953,89.260 268.841 C 90.251 266.728,91.152 264.999,91.263 264.998 C 91.374 264.997,92.255 266.688,93.222 268.755 M197.890 319.204 C 195.983 321.877,196.002 322.039,198.259 322.348 L 199.833 322.564 199.833 319.678 C 199.833 316.213,199.996 316.253,197.890 319.204 M107.147 350.739 C 90.453 354.780,86.743 377.229,101.223 386.587 C 114.404 395.107,131.564 385.560,131.472 369.758 C 131.397 356.877,119.670 347.707,107.147 350.739 M91.562 393.818 C 84.349 394.700,78.838 396.580,76.955 398.800 C 72.360 404.220,68.496 423.736,70.284 432.498 L 70.540 433.751 111.935 433.751 L 153.330 433.751 153.568 431.533 C 154.950 418.625,150.451 400.670,145.014 397.400 C 141.721 395.419,135.998 394.045,128.648 393.472 L 125.800 393.250 120.923 403.150 L 116.047 413.050 115.869 409.616 L 115.692 406.182 117.328 404.501 C 119.770 401.992,119.669 401.524,115.867 397.738 C 111.866 393.754,111.997 393.751,107.847 397.917 C 104.060 401.718,104.002 401.948,106.266 404.177 L 107.937 405.823 107.913 408.509 C 107.871 413.320,107.802 413.245,102.741 402.875 L 98.079 393.321 96.575 393.355 C 95.748 393.374,93.492 393.582,91.562 393.818 M194.456 435.607 C 169.371 440.149,160.163 471.329,178.701 488.959 C 183.840 493.846,191.746 497.243,197.981 497.243 L 199.833 497.243 199.833 490.403 L 199.833 483.562 198.617 484.387 C 194.562 487.139,193.487 486.661,185.190 478.422 C 175.925 469.222,175.203 467.382,179.217 463.203 C 182.935 459.333,185.504 459.778,191.052 465.251 L 194.831 468.979 197.332 466.495 L 199.833 464.010 199.833 449.549 L 199.833 435.088 198.413 435.118 C 197.632 435.134,195.851 435.354,194.456 435.607 M88.360 450.783 C 85.558 451.917,84.699 458.536,87.025 461.074 L 88.169 462.322 111.423 462.413 C 132.008 462.493,134.794 462.443,135.691 461.979 C 138.870 460.335,139.016 453.010,135.907 451.114 C 134.757 450.413,90.044 450.102,88.360 450.783 M88.360 476.848 C 85.558 477.982,84.699 484.601,87.025 487.139 L 88.169 488.388 111.423 488.478 C 132.008 488.558,134.794 488.508,135.691 488.044 C 138.870 486.400,139.016 479.075,135.907 477.179 C 134.757 476.478,90.044 476.167,88.360 476.848 " stroke="none" fill="#132353" fill-rule="evenodd"></path><path id="path1" d="M200.167 7.175 L 200.167 14.349 252.047 14.450 C 310.278 14.563,306.129 14.388,314.270 17.080 C 332.668 23.166,346.111 39.408,348.534 58.480 C 348.789 60.493,348.865 120.449,348.795 264.495 L 348.695 467.669 347.988 470.677 C 343.203 491.028,328.742 505.343,308.271 509.991 L 304.929 510.750 252.548 510.857 L 200.167 510.964 200.167 518.148 L 200.167 525.333 253.049 525.229 C 310.992 525.115,307.135 525.245,315.289 523.137 C 337.413 517.417,355.500 499.273,361.230 477.051 C 363.308 468.992,363.241 471.196,363.241 410.359 L 363.241 354.910 366.537 349.970 C 411.254 282.928,411.054 194.393,366.035 127.691 L 363.241 123.552 363.235 91.434 C 363.229 57.359,363.189 56.339,361.595 49.663 C 355.183 22.798,332.101 2.889,304.428 0.354 C 301.940 0.126,282.877 0.002,250.376 0.001 L 200.167 0.000 200.167 7.175 M257.539 28.410 C 255.109 29.139,253.151 31.609,252.114 35.255 C 250.648 40.404,247.787 43.934,243.369 46.043 L 240.769 47.285 220.470 47.378 L 200.172 47.472 200.086 93.780 L 200.000 140.089 203.388 143.227 C 206.482 146.091,206.865 146.346,207.796 146.160 C 209.015 145.916,208.468 148.251,212.580 125.759 C 214.299 116.354,215.776 108.731,215.863 108.818 C 216.021 108.975,218.159 142.197,218.194 145.031 C 218.211 146.468,218.268 146.554,219.445 146.922 L 220.678 147.308 237.532 133.612 L 254.387 119.915 250.896 124.201 C 226.972 153.577,227.541 152.824,229.451 152.550 C 232.448 152.120,268.760 148.348,268.868 148.456 C 268.933 148.521,262.111 150.883,253.708 153.706 C 233.719 160.421,232.735 160.776,233.291 161.078 C 233.544 161.214,241.303 163.478,250.533 166.109 C 259.763 168.739,267.279 170.928,267.234 170.973 C 267.189 171.018,258.585 170.641,248.115 170.135 L 229.077 169.216 228.525 169.898 C 228.221 170.273,227.900 171.228,227.810 172.020 C 227.721 172.811,227.202 174.393,226.656 175.535 C 226.111 176.677,225.264 178.456,224.775 179.490 C 223.731 181.696,221.354 184.043,218.912 185.281 C 216.937 186.281,216.777 186.586,216.005 190.805 C 215.212 195.138,215.378 195.629,218.466 198.100 C 220.902 200.049,222.635 201.270,230.729 206.739 C 236.807 210.845,239.192 213.682,243.909 222.413 C 248.767 231.407,250.016 235.447,250.619 244.110 C 251.672 259.257,251.795 259.967,256.776 279.770 C 258.870 288.094,261.456 298.926,262.522 303.843 C 263.588 308.759,264.543 312.778,264.644 312.774 C 264.746 312.770,265.597 311.454,266.535 309.850 C 267.474 308.246,270.217 303.598,272.632 299.521 L 277.022 292.107 305.928 308.627 C 321.826 317.712,334.910 325.146,335.005 325.146 C 335.100 325.146,335.138 265.184,335.091 191.896 L 335.004 58.647 334.210 55.815 C 329.947 40.624,317.844 30.122,302.645 28.427 C 298.830 28.002,258.950 27.987,257.539 28.410 M263.956 50.610 L 265.756 54.402 268.188 54.764 C 269.525 54.963,271.460 55.224,272.486 55.345 C 274.881 55.626,274.896 55.582,271.299 58.916 L 268.245 61.746 268.960 65.726 C 269.353 67.915,269.674 69.893,269.674 70.121 C 269.674 70.358,268.019 69.655,265.831 68.490 L 261.988 66.444 258.145 68.462 C 253.722 70.786,253.989 71.023,254.962 65.637 L 255.621 61.988 252.623 58.975 C 249.428 55.763,249.236 55.472,250.314 55.472 C 250.693 55.472,252.584 55.226,254.515 54.925 L 258.028 54.378 259.918 50.581 C 260.957 48.492,261.886 46.791,261.982 46.801 C 262.077 46.810,262.966 48.524,263.956 50.610 M308.279 74.463 C 308.385 74.579,321.314 76.500,322.099 76.515 C 322.352 76.521,320.231 78.774,317.384 81.524 L 312.208 86.523 313.336 92.969 C 313.957 96.515,314.424 99.669,314.375 99.980 C 314.303 100.434,313.128 99.930,308.340 97.390 C 301.204 93.604,302.885 93.599,295.526 97.430 C 292.151 99.186,289.390 100.501,289.390 100.350 C 289.390 100.200,289.912 97.071,290.551 93.397 L 291.711 86.717 286.628 81.621 C 283.833 78.818,281.642 76.525,281.761 76.525 C 282.055 76.525,293.299 74.914,294.662 74.677 C 295.712 74.494,295.881 74.227,298.822 68.123 L 301.887 61.760 305.033 68.056 C 306.763 71.519,308.224 74.402,308.279 74.463 M212.909 134.759 C 211.934 140.132,210.992 145.218,210.815 146.060 L 210.495 147.593 208.422 148.072 L 206.349 148.550 203.342 145.704 L 200.334 142.857 200.167 146.533 C 200.075 148.555,200.120 150.475,200.266 150.801 C 200.412 151.126,200.445 151.533,200.339 151.705 C 199.758 152.645,200.181 189.922,200.777 190.339 C 203.808 192.462,211.631 199.023,211.940 199.701 C 212.677 201.319,211.793 202.166,207.903 203.569 C 204.634 204.748,202.140 205.984,200.668 207.154 C 200.117 207.593,200.029 207.963,200.167 209.262 L 200.334 210.838 203.175 208.858 C 206.493 206.544,206.565 206.522,206.289 207.905 C 206.056 209.069,206.147 209.055,208.044 207.632 C 211.048 205.379,216.452 203.550,217.697 204.365 C 218.154 204.665,219.143 205.092,219.894 205.314 L 221.259 205.717 214.305 209.079 C 210.481 210.928,205.773 213.093,203.843 213.889 C 199.144 215.829,198.688 216.410,202.646 215.415 C 205.736 214.639,206.143 214.671,205.293 215.622 C 203.120 218.057,200.167 222.904,200.167 224.037 C 200.167 225.407,200.180 225.413,201.584 224.687 C 203.422 223.737,204.700 223.464,204.079 224.155 C 202.015 226.451,199.987 230.478,200.111 232.036 L 200.238 233.634 201.083 232.857 L 201.928 232.080 201.001 233.568 C 200.161 234.916,199.685 239.562,200.322 240.199 C 200.385 240.263,203.176 236.688,206.524 232.255 C 209.872 227.822,212.660 224.244,212.719 224.303 C 212.778 224.363,212.163 227.039,211.351 230.251 C 208.944 239.771,208.902 239.831,216.389 223.044 L 222.357 209.664 223.239 210.651 C 224.057 211.567,224.343 211.654,227.189 211.860 C 232.214 212.222,234.865 214.822,234.452 218.982 C 234.328 220.224,234.378 220.847,234.590 220.716 C 234.772 220.604,234.921 220.827,234.921 221.211 C 234.921 222.446,236.460 224.989,238.937 227.845 C 245.599 235.529,247.425 244.586,243.874 252.332 L 243.108 254.003 241.699 252.963 L 240.290 251.922 240.062 252.832 C 239.852 253.670,239.766 253.569,238.962 251.541 C 237.819 248.657,237.800 248.649,237.018 250.702 L 236.347 252.464 236.174 245.447 C 236.033 239.730,235.869 237.936,235.289 235.768 C 234.477 232.732,233.726 231.515,234.148 233.918 C 234.293 234.745,234.413 244.394,234.416 255.361 L 234.419 275.300 233.584 276.192 L 232.749 277.084 232.537 276.136 C 232.421 275.615,232.309 272.585,232.287 269.404 C 232.265 266.223,232.128 263.693,231.982 263.783 C 231.837 263.874,229.700 269.064,227.235 275.318 C 224.769 281.572,222.728 286.658,222.698 286.620 C 222.669 286.581,223.307 283.919,224.117 280.704 C 226.296 272.058,227.799 263.209,228.675 253.885 C 228.915 251.321,228.452 252.053,227.618 255.555 C 223.147 274.338,213.694 295.724,202.295 312.843 L 200.000 316.291 200.097 319.418 L 200.193 322.545 201.767 322.326 C 209.568 321.240,216.419 311.760,223.392 292.398 C 225.957 285.277,228.546 279.031,228.934 279.031 C 229.421 279.031,229.738 279.845,230.075 281.964 L 230.409 284.062 232.999 279.802 C 234.424 277.460,235.589 275.839,235.588 276.201 C 235.585 279.367,228.812 316.721,227.365 321.554 C 226.828 323.346,228.027 321.655,229.498 318.546 C 234.019 308.990,236.713 299.242,238.574 285.714 C 239.406 279.661,239.391 281.402,238.449 300.249 C 238.008 309.070,237.706 316.348,237.780 316.421 C 238.023 316.664,238.191 315.750,241.997 293.567 L 245.781 271.512 245.948 287.552 C 246.040 296.374,246.220 303.292,246.349 302.924 C 246.477 302.556,247.802 295.793,249.293 287.894 C 250.784 279.995,252.041 273.495,252.087 273.449 C 252.333 273.203,256.742 294.280,258.660 304.878 C 260.231 313.554,260.478 314.095,260.211 308.271 C 259.852 300.470,258.753 294.702,254.637 279.031 C 250.348 262.704,249.535 258.286,248.946 248.118 C 248.287 236.745,247.516 233.597,243.454 225.687 C 238.165 215.390,236.115 212.755,230.329 208.816 C 228.355 207.473,225.761 205.639,224.564 204.742 C 223.368 203.845,221.856 202.837,221.203 202.502 C 217.538 200.620,213.577 196.386,213.547 194.319 C 213.473 189.232,215.176 185.232,218.157 183.491 C 220.891 181.894,222.581 180.115,223.400 177.970 L 224.004 176.388 223.030 175.591 C 221.671 174.480,221.414 174.562,220.961 176.255 C 220.009 179.817,214.595 180.600,214.267 177.224 C 214.163 176.150,215.578 175.345,216.533 175.935 C 217.270 176.390,217.509 175.723,216.995 174.644 C 216.515 173.638,216.516 173.450,217.006 172.501 C 217.692 171.176,217.698 171.205,216.697 170.954 C 215.727 170.711,215.333 169.927,215.034 167.645 C 214.667 164.850,213.475 164.280,209.956 165.216 L 208.216 165.679 208.750 164.864 C 212.232 159.551,221.554 162.217,221.554 168.525 C 221.554 173.467,224.046 173.479,227.137 168.552 L 228.070 167.064 229.741 167.251 C 237.018 168.063,252.654 169.000,252.254 168.601 C 252.169 168.516,247.746 167.232,242.424 165.747 C 228.373 161.828,229.240 162.145,229.240 160.920 L 229.240 159.890 241.779 155.720 C 248.675 153.427,254.163 151.499,253.973 151.436 C 253.784 151.373,247.672 152.103,240.392 153.059 L 227.154 154.797 226.370 153.840 C 225.939 153.313,225.645 152.711,225.717 152.502 C 225.825 152.191,237.765 137.279,239.530 135.253 C 241.290 133.230,238.555 135.193,230.691 141.594 C 225.756 145.611,221.527 149.016,221.294 149.160 C 221.058 149.306,219.918 149.106,218.728 148.710 C 216.116 147.841,216.404 149.054,215.673 135.840 C 215.358 130.142,215.006 125.370,214.891 125.235 C 214.776 125.101,213.884 129.386,212.909 134.759 M218.829 154.891 C 222.347 156.470,224.896 160.026,224.896 163.358 L 224.896 164.525 223.637 162.724 C 218.224 154.976,206.866 156.454,202.362 165.493 C 201.374 167.476,201.004 167.084,201.235 164.297 C 201.862 156.735,211.480 151.593,218.829 154.891 M217.305 166.299 C 217.025 166.413,216.999 166.637,217.222 167.025 C 217.399 167.333,217.690 167.999,217.870 168.505 C 218.239 169.546,219.511 169.773,220.217 168.923 C 221.096 167.863,218.723 165.724,217.305 166.299 M203.298 200.540 C 200.604 201.622,199.942 202.018,200.062 202.473 C 200.198 202.993,207.185 199.897,207.185 199.316 C 207.185 199.024,206.657 199.190,203.298 200.540 M379.520 229.038 C 380.032 229.142,381.504 229.381,382.790 229.567 C 384.077 229.754,385.656 229.998,386.299 230.111 L 387.469 230.315 384.306 233.264 L 381.143 236.213 381.842 240.496 C 382.227 242.851,382.496 244.829,382.441 244.891 C 382.387 244.953,380.640 244.096,378.559 242.985 L 374.776 240.966 370.986 242.984 C 368.902 244.094,367.152 244.952,367.098 244.890 C 367.044 244.829,367.314 242.851,367.698 240.496 L 368.397 236.213 365.234 233.273 L 362.072 230.333 363.074 230.132 C 363.626 230.021,365.355 229.755,366.917 229.540 C 371.017 228.975,370.881 229.079,372.925 224.923 L 374.755 221.201 376.672 225.024 C 378.311 228.292,378.725 228.875,379.520 229.038 M209.096 258.011 L 200.161 273.795 200.248 291.642 L 200.334 309.489 206.057 300.693 C 212.196 291.257,212.531 290.701,212.531 289.937 C 212.531 289.230,211.530 288.316,210.984 288.525 C 210.644 288.656,210.526 288.361,210.526 287.375 L 210.526 286.048 207.352 286.048 C 205.606 286.048,204.177 285.973,204.177 285.880 C 204.177 285.788,208.173 276.751,213.057 265.799 C 217.941 254.846,221.869 245.817,221.786 245.734 C 221.617 245.566,220.622 246.947,214.235 256.224 C 211.799 259.762,209.734 262.657,209.645 262.657 C 209.557 262.657,209.562 262.531,209.657 262.377 C 210.262 261.398,218.213 242.777,218.131 242.532 C 218.076 242.364,214.010 249.330,209.096 258.011 M202.062 254.579 L 200.134 256.527 200.234 258.775 L 200.334 261.022 202.421 256.827 C 204.787 252.071,204.753 251.859,202.062 254.579 M310.746 268.848 C 311.740 270.956,312.675 272.682,312.824 272.682 C 313.403 272.682,320.327 273.726,320.782 273.881 C 321.108 273.993,320.272 275.040,318.177 277.145 L 315.091 280.244 315.774 284.040 C 316.150 286.128,316.458 288.046,316.458 288.301 C 316.458 288.607,315.138 288.063,312.610 286.714 L 308.762 284.662 304.924 286.705 C 300.511 289.055,300.779 289.295,301.763 283.886 L 302.429 280.219 299.352 277.130 C 297.660 275.430,296.342 273.983,296.425 273.915 C 296.507 273.846,298.453 273.530,300.748 273.212 C 303.043 272.894,304.938 272.607,304.960 272.574 C 304.981 272.541,305.795 270.823,306.770 268.755 C 307.745 266.688,308.632 265.000,308.741 265.005 C 308.850 265.010,309.752 266.739,310.746 268.848 M239.495 279.616 C 239.411 279.937,239.342 279.674,239.342 279.031 C 239.342 278.388,239.411 278.124,239.495 278.446 C 239.579 278.768,239.579 279.294,239.495 279.616 M283.256 350.718 C 268.416 354.464,263.371 373.147,274.284 383.945 C 284.641 394.193,302.068 390.120,306.830 376.338 C 311.848 361.816,298.172 346.953,283.256 350.718 M268.703 393.699 C 262.612 394.336,257.553 395.739,254.598 397.613 C 249.506 400.842,245.104 419.130,246.432 431.533 L 246.670 433.751 288.065 433.751 L 329.460 433.751 329.710 432.498 C 330.732 427.384,329.581 415.117,327.457 408.484 C 323.909 397.403,321.237 395.377,308.106 393.814 C 301.250 392.997,302.646 391.832,297.259 402.874 C 292.198 413.248,292.129 413.323,292.087 408.509 L 292.063 405.823 293.734 404.177 C 296.010 401.935,295.951 401.701,292.141 397.905 C 287.971 393.751,288.101 393.753,284.120 397.751 C 280.342 401.544,280.244 402.001,282.664 404.501 L 284.292 406.182 284.084 409.566 L 283.876 412.951 279.058 403.134 L 274.240 393.317 272.876 393.361 C 272.126 393.385,270.248 393.538,268.703 393.699 M200.167 449.361 L 200.167 463.635 206.099 457.755 C 209.361 454.522,212.556 451.604,213.200 451.272 C 218.379 448.598,224.647 454.614,222.374 460.078 C 222.029 460.907,218.255 464.930,211.012 472.187 L 200.167 483.054 200.167 490.149 L 200.167 497.243 202.019 497.243 C 215.999 497.243,229.071 484.839,230.896 469.841 C 233.046 452.180,218.486 435.088,201.293 435.088 L 200.167 435.088 200.167 449.361 M264.093 451.110 C 260.984 453.017,261.129 460.335,264.309 461.979 C 265.206 462.443,267.992 462.493,288.577 462.413 L 311.831 462.322 312.975 461.074 C 314.737 459.151,314.737 453.798,312.975 451.875 L 311.831 450.627 288.497 450.540 C 265.814 450.457,265.133 450.473,264.093 451.110 M264.093 477.176 C 260.984 479.082,261.129 486.400,264.309 488.044 C 265.206 488.508,267.992 488.558,288.577 488.478 L 311.831 488.388 312.975 487.139 C 314.737 485.216,314.737 479.863,312.975 477.940 L 311.831 476.692 288.497 476.606 C 265.814 476.522,265.133 476.538,264.093 477.176 " stroke="none" fill="#a4242c" fill-rule="evenodd"></path><path id="path2" d="M199.975 7.185 C 199.976 11.228,200.024 12.836,200.083 10.758 C 200.141 8.681,200.141 5.372,200.082 3.407 C 200.023 1.441,199.975 3.141,199.975 7.185 M199.995 93.567 C 199.995 119.023,200.035 129.436,200.084 116.708 C 200.132 103.981,200.132 83.154,200.084 70.426 C 200.035 57.698,199.995 68.112,199.995 93.567 M199.958 146.533 C 199.959 148.555,200.014 149.339,200.080 148.275 C 200.147 147.212,200.146 145.558,200.079 144.599 C 200.012 143.641,199.957 144.511,199.958 146.533 M199.989 170.927 C 199.989 181.220,200.031 185.479,200.083 180.391 C 200.135 175.304,200.135 166.883,200.083 161.678 C 200.032 156.473,199.989 160.635,199.989 170.927 M199.928 209.357 C 199.931 210.276,199.996 210.612,200.073 210.104 C 200.150 209.596,200.147 208.844,200.068 208.433 C 199.989 208.022,199.926 208.438,199.928 209.357 M199.924 232.247 C 199.924 233.074,199.989 233.413,200.069 232.999 C 200.148 232.586,200.148 231.909,200.069 231.495 C 199.989 231.082,199.924 231.420,199.924 232.247 M199.947 238.095 C 199.949 239.566,200.007 240.126,200.078 239.340 C 200.149 238.554,200.148 237.351,200.076 236.666 C 200.004 235.982,199.946 236.625,199.947 238.095 M199.940 258.981 C 199.940 260.175,200.001 260.664,200.075 260.067 C 200.149 259.470,200.149 258.492,200.075 257.895 C 200.001 257.297,199.940 257.786,199.940 258.981 M199.989 291.896 C 199.989 301.637,200.031 305.574,200.083 300.645 C 200.135 295.715,200.135 287.746,200.083 282.934 C 200.031 278.122,199.988 282.155,199.989 291.896 M199.952 319.632 C 199.951 321.287,200.007 322.005,200.077 321.230 C 200.147 320.454,200.148 319.101,200.079 318.222 C 200.010 317.344,199.953 317.978,199.952 319.632 M199.986 449.290 C 199.986 457.193,200.030 460.378,200.083 456.368 C 200.137 452.358,200.137 445.892,200.083 441.999 C 200.030 438.106,199.986 441.387,199.986 449.290 M199.974 490.393 C 199.975 494.252,200.023 495.785,200.082 493.800 C 200.142 491.814,200.141 488.656,200.082 486.782 C 200.023 484.908,199.974 486.533,199.974 490.393 M199.975 518.129 C 199.976 522.172,200.024 523.780,200.083 521.702 C 200.141 519.625,200.141 516.316,200.082 514.351 C 200.023 512.385,199.975 514.085,199.975 518.129 " stroke="none" fill="#74243c" fill-rule="evenodd"></path><path id="path3" d="" stroke="none" fill="#44244c" fill-rule="evenodd"></path><path id="path4" d="" stroke="none" fill="#7c243c" fill-rule="evenodd"></path></g></svg>